<svg width="16" height="16" viewBox="0 0 16 16" fill="none" xmlns="http://www.w3.org/2000/svg">
<g clip-path="url(#clip0_17_2260)">
<path d="M15.0222 15.968L9.17778 10.3573C8.73333 10.7271 8.21482 11.0151 7.62222 11.2213C7.02963 11.4276 6.4 11.5307 5.73333 11.5307C4.13333 11.5307 2.77778 10.9973 1.66667 9.93067C0.555556 8.864 0 7.57689 0 6.06934C0 4.56178 0.555556 3.27467 1.66667 2.208C2.77778 1.14134 4.12593 0.608002 5.71111 0.608002C7.28148 0.608002 8.61852 1.14134 9.72222 2.208C10.8259 3.27467 11.3778 4.56178 11.3778 6.06934C11.3778 6.68089 11.2741 7.27111 11.0667 7.84C10.8593 8.40889 10.5481 8.94222 10.1333 9.44L16 15.0293L15.0222 15.968ZM5.71111 10.2507C6.91111 10.2507 7.93333 9.84178 8.77778 9.024C9.62222 8.20622 10.0444 7.22134 10.0444 6.06934C10.0444 4.91734 9.62222 3.93245 8.77778 3.11467C7.93333 2.29689 6.91111 1.888 5.71111 1.888C4.4963 1.888 3.46296 2.29689 2.61111 3.11467C1.75926 3.93245 1.33333 4.91734 1.33333 6.06934C1.33333 7.22134 1.75926 8.20622 2.61111 9.024C3.46296 9.84178 4.4963 10.2507 5.71111 10.2507Z" fill="#828282"/>
</g>
<defs>
<clipPath id="clip0_17_2260">
<rect width="16" height="16" fill="white"/>
</clipPath>
</defs>
</svg>
